<?xml version="1.0" standalone="no"?>
<!DOCTYPE svg PUBLIC "-//W3C//DTD SVG 20010904//EN"
 "http://www.w3.org/TR/2001/REC-SVG-20010904/DTD/svg10.dtd">
<svg version="1.0" xmlns="http://www.w3.org/2000/svg"
 width="3000.000000pt" height="1000.000000pt" viewBox="0 0 3000.000000 1000.000000"
 preserveAspectRatio="xMidYMid meet">

<g transform="translate(0.000000,1000.000000) scale(0.100000,-0.100000)"
fill="#000000" stroke="none">
<path d="M4920 9170 c-8 -5 -39 -10 -68 -10 -59 0 -303 -25 -399 -40 -163 -26
-205 -33 -298 -52 -55 -11 -116 -24 -135 -28 -19 -4 -57 -13 -85 -19 -27 -6
-66 -15 -85 -20 -728 -186 -1391 -502 -1940 -924 -362 -278 -729 -658 -962
-997 -347 -503 -561 -1054 -640 -1650 -14 -112 -22 -788 -9 -815 6 -11 12 -45
14 -75 5 -67 24 -184 37 -225 4 -16 13 -55 20 -85 12 -63 26 -117 45 -175 7
-22 18 -60 25 -85 12 -46 18 -61 40 -115 6 -16 18 -50 26 -75 14 -43 20 -57
49 -125 194 -451 443 -829 788 -1193 111 -117 296 -292 392 -371 57 -47 268
-208 301 -231 197 -133 283 -188 359 -231 49 -27 103 -57 175 -98 51 -29 381
-192 425 -211 11 -4 36 -15 57 -24 20 -9 39 -16 42 -16 3 0 25 -8 49 -19 23
-10 74 -31 112 -45 39 -15 78 -32 87 -37 10 -5 28 -9 41 -9 13 0 27 -4 32 -8
6 -5 37 -17 70 -27 33 -10 64 -21 70 -26 5 -5 21 -9 36 -9 15 0 31 -5 34 -10
3 -6 15 -10 26 -10 20 0 105 -24 144 -40 11 -5 34 -11 50 -14 17 -2 48 -9 70
-14 22 -6 67 -15 100 -22 33 -6 64 -16 70 -21 5 -5 30 -9 56 -9 26 0 51 -4 54
-10 3 -5 25 -10 48 -10 23 0 58 -5 77 -10 19 -6 61 -13 93 -15 33 -3 64 -8 70
-12 7 -5 53 -11 102 -16 50 -4 140 -12 200 -17 184 -17 795 -24 950 -11 77 6
178 13 225 16 214 12 683 96 920 165 19 5 76 21 125 36 167 48 366 116 510
174 237 97 525 235 695 335 261 152 539 349 753 533 277 238 608 607 750 837
70 115 137 302 137 386 0 19 5 40 11 46 12 12 7 133 -10 233 -44 255 -187 497
-400 674 -162 135 -336 225 -546 284 -259 74 -589 82 -840 22 -103 -25 -263
-83 -350 -127 -204 -102 -342 -216 -494 -408 -276 -349 -599 -576 -1026 -723
-167 -57 -317 -90 -558 -122 -113 -15 -434 -12 -567 5 -316 40 -557 110 -820
240 -31 15 -162 89 -210 118 -136 82 -379 301 -495 447 -137 171 -239 372
-293 575 -47 177 -47 175 -47 400 1 175 4 234 18 290 28 112 38 149 48 167 5
10 9 27 9 37 0 11 4 22 9 25 5 3 12 18 16 33 12 51 96 207 173 323 83 123 280
333 402 427 99 77 256 177 361 230 80 41 130 63 304 133 11 4 40 13 65 20 79
22 104 29 155 44 28 8 79 19 115 25 36 7 88 16 116 22 29 5 76 11 105 13 30 2
104 7 164 11 218 15 566 -28 822 -101 139 -40 216 -70 418 -165 111 -52 279
-163 407 -267 161 -132 198 -152 333 -178 84 -17 136 -18 207 -3 202 40 330
132 400 286 17 38 22 67 22 143 0 151 -38 215 -212 361 -224 187 -517 367
-797 489 -170 75 -413 156 -597 199 -112 26 -137 31 -218 45 -229 40 -504 66
-685 66 -254 0 -690 -53 -905 -109 -19 -5 -55 -15 -80 -21 -278 -71 -619 -213
-893 -371 -98 -57 -304 -202 -402 -284 -236 -196 -487 -485 -613 -706 -11 -19
-39 -68 -62 -109 -133 -232 -215 -460 -251 -705 -20 -128 -16 -524 6 -680 42
-301 148 -596 315 -879 154 -262 452 -582 742 -798 466 -349 1087 -583 1733
-653 156 -17 696 -19 820 -4 137 18 281 41 355 56 133 27 144 30 245 58 55 14
114 30 130 35 33 9 199 66 230 80 11 5 65 27 120 50 465 195 906 526 1209 907
53 67 111 133 129 147 158 118 375 110 524 -18 90 -78 123 -212 75 -304 -77
-148 -392 -496 -622 -687 -567 -471 -1276 -788 -2045 -915 -71 -11 -161 -27
-200 -35 -257 -50 -1199 -34 -1348 24 -16 6 -47 11 -71 11 -23 0 -46 4 -51 9
-6 5 -32 11 -60 14 -56 6 -111 17 -200 42 -33 9 -76 20 -95 25 -88 22 -222 63
-265 80 -11 5 -42 16 -70 26 -27 9 -54 21 -60 26 -5 4 -16 8 -25 8 -9 0 -34 8
-56 19 -21 10 -55 25 -74 33 -112 48 -157 69 -270 126 -493 252 -888 563
-1234 971 -143 169 -214 267 -303 416 -169 284 -282 575 -352 905 -57 269 -66
689 -20 965 20 120 31 169 79 350 36 136 130 370 214 530 332 632 901 1169
1615 1525 64 32 132 64 151 73 19 8 51 21 70 30 19 8 60 25 90 37 30 12 64 26
75 30 58 24 173 63 280 95 66 19 134 39 150 44 17 5 62 17 100 25 39 9 88 21
110 26 156 36 442 79 640 96 154 13 721 7 865 -10 157 -18 255 -32 325 -46 28
-6 86 -17 130 -26 93 -18 319 -71 355 -84 14 -5 79 -25 145 -46 106 -32 287
-99 383 -140 17 -8 49 -21 70 -30 95 -41 339 -169 457 -239 274 -164 485 -328
740 -575 123 -120 185 -173 225 -192 275 -134 628 -40 753 199 56 109 58 230
5 343 -39 84 -397 427 -638 611 -143 110 -466 329 -484 329 -3 0 -50 27 -105
59 -154 91 -462 239 -646 311 -44 17 -89 35 -100 40 -40 18 -212 77 -340 117
-269 83 -661 171 -910 202 -44 6 -113 15 -154 21 -41 6 -123 13 -183 17 -60 3
-111 10 -114 15 -7 12 -785 10 -804 -2z"/>
<path d="M20500 7029 c-545 -62 -916 -327 -1010 -723 -25 -103 -27 -295 -4
-399 47 -214 193 -384 431 -501 146 -72 272 -109 689 -201 264 -58 353 -96
390 -167 20 -38 12 -87 -19 -115 -60 -55 -148 -74 -335 -74 -274 0 -565 72
-828 204 l-91 46 -149 -336 c-82 -185 -150 -340 -152 -344 -5 -11 155 -90 271
-133 396 -148 971 -199 1367 -120 269 54 480 160 640 323 208 211 285 504 209
798 -51 202 -183 349 -414 463 -150 74 -283 114 -600 180 -378 79 -473 116
-493 192 -28 105 74 182 263 197 254 20 516 -39 861 -195 6 -3 46 79 97 203
47 114 111 268 141 341 l55 133 -91 45 c-178 86 -413 150 -665 179 -138 16
-437 18 -563 4z"/>
<path d="M9730 5585 l0 -1395 1100 0 1100 0 0 365 0 365 -630 0 -630 0 0 1030
0 1030 -470 0 -470 0 0 -1395z"/>
<path d="M12163 6113 c3 -755 5 -880 20 -958 90 -491 357 -808 797 -949 185
-59 275 -71 545 -71 185 1 261 5 332 18 418 79 705 275 871 595 58 113 92 207
123 347 23 99 23 109 26 993 l4 892 -460 0 -460 0 -4 -837 c-3 -770 -5 -844
-22 -908 -61 -237 -188 -345 -405 -345 -217 0 -344 108 -405 345 -17 64 -19
138 -22 908 l-4 837 -470 0 -470 0 4 -867z"/>
<path d="M15320 5585 l0 -1395 848 0 c871 0 992 4 1177 41 237 47 401 126 530
254 161 159 222 364 181 605 -39 231 -178 404 -414 519 l-83 40 58 37 c186
118 287 273 313 478 11 93 1 223 -24 294 -104 294 -398 467 -866 511 -71 7
-424 11 -917 11 l-803 0 0 -1395z m1505 720 c110 -29 159 -87 159 -190 0 -70
-19 -113 -67 -149 -62 -47 -126 -56 -414 -56 l-263 0 0 205 0 205 263 0 c205
0 276 -3 322 -15z m131 -1038 c101 -33 148 -83 160 -170 15 -108 -42 -193
-154 -227 -58 -18 -93 -20 -393 -20 l-329 0 0 213 c0 118 3 217 8 221 4 4 153
6 332 3 265 -3 334 -7 376 -20z"/>
<path d="M22220 5585 l0 -1395 460 0 460 0 0 343 0 342 107 118 c58 65 109
115 113 110 4 -4 155 -204 335 -443 180 -239 335 -443 344 -453 16 -16 53 -17
559 -15 l542 3 -586 778 -585 778 78 86 c561 619 936 1028 944 1028 5 0 232
-373 504 -830 l495 -830 0 -507 0 -508 465 0 465 0 0 501 0 501 472 796 c259
439 497 841 529 895 l58 97 -457 0 -457 -1 -255 -430 c-140 -236 -269 -452
-286 -480 l-30 -50 -284 481 -283 480 -936 0 -936 -1 -450 -499 c-247 -274
-453 -499 -457 -499 -5 -1 -8 224 -8 499 l0 500 -460 0 -460 0 0 -1395z"/>
<path d="M5165 6129 c-22 -4 -63 -8 -91 -8 -28 -1 -54 -4 -58 -8 -7 -7 -75
-25 -151 -40 -16 -3 -34 -9 -40 -13 -5 -4 -28 -13 -50 -20 -153 -49 -327 -160
-461 -294 -130 -130 -214 -262 -253 -396 -7 -25 -17 -54 -21 -65 -5 -11 -11
-48 -14 -83 -3 -35 -10 -71 -16 -82 -14 -26 -12 -69 5 -137 8 -31 15 -74 15
-95 0 -20 4 -47 9 -60 5 -13 15 -43 22 -68 7 -25 29 -80 50 -123 217 -448 830
-732 1404 -652 121 17 139 21 210 41 95 27 120 35 140 44 11 5 49 21 85 36
228 98 458 305 566 510 82 155 108 264 108 444 0 174 -21 265 -100 425 -143
290 -489 543 -844 616 -164 33 -421 48 -515 28z"/>
<path d="M12912 3871 c-100 -34 -162 -119 -162 -221 0 -152 126 -249 310 -238
88 5 166 41 207 95 27 35 53 111 53 152 0 93 -74 187 -169 215 -72 21 -173 20
-239 -3z"/>
<path d="M14284 3879 c-18 -5 -53 -24 -80 -41 -130 -88 -131 -287 0 -375 60
-41 104 -53 191 -53 119 1 203 45 250 132 72 132 6 290 -139 333 -54 16 -173
18 -222 4z"/>
<path d="M12199 3740 c-123 -19 -219 -69 -292 -149 -64 -71 -107 -182 -107
-278 l0 -53 -80 0 -80 0 0 -175 0 -175 80 0 80 0 0 -365 0 -365 235 0 235 0 0
365 0 365 115 0 115 0 0 175 0 175 -120 0 -120 0 0 29 c0 39 43 89 83 96 18 3
53 -1 80 -9 26 -8 49 -10 52 -6 3 4 29 78 59 164 61 178 64 163 -39 190 -76
19 -224 27 -296 16z"/>
<path d="M13477 3724 c-4 -4 -7 -353 -7 -776 l0 -768 240 0 240 0 -2 773 -3
772 -231 3 c-127 1 -233 -1 -237 -4z"/>
<path d="M16957 3724 c-4 -4 -7 -110 -7 -236 0 -125 -3 -228 -6 -228 -3 0 -19
10 -36 21 -51 37 -141 59 -237 59 -163 0 -277 -46 -386 -155 -121 -120 -168
-240 -169 -430 -1 -192 49 -322 168 -440 118 -117 237 -160 416 -153 88 4 115
9 167 32 34 16 70 37 79 47 26 28 34 23 34 -21 l0 -40 225 0 225 0 -2 773 -3
772 -231 3 c-127 1 -233 -1 -237 -4z m-97 -776 c69 -35 95 -90 95 -198 0 -72
-4 -92 -25 -130 -31 -55 -88 -90 -148 -90 -115 0 -184 83 -184 220 0 173 125
267 262 198z"/>
<path d="M10242 2925 c-172 -394 -315 -722 -319 -730 -4 -13 30 -15 248 -15
l254 0 46 123 46 122 276 3 276 2 48 -125 48 -125 258 0 c141 0 257 1 257 3 0
1 -143 328 -318 727 l-317 725 -245 3 -245 2 -313 -715z m616 55 c33 -85 63
-163 67 -172 7 -17 -3 -18 -130 -18 -126 0 -137 1 -131 18 45 120 130 331 132
329 2 -1 30 -72 62 -157z"/>
<path d="M15148 3326 c-90 -16 -193 -49 -263 -84 -27 -13 -52 -26 -54 -28 -2
-1 31 -73 72 -158 l76 -156 71 34 c124 60 259 69 357 26 38 -17 73 -60 73 -90
0 -6 -48 -10 -137 -10 -294 -1 -447 -54 -528 -184 -29 -47 -30 -54 -30 -160 0
-97 3 -117 23 -154 36 -67 88 -119 153 -151 82 -41 156 -54 269 -49 130 6 209
42 267 120 l23 32 0 -67 0 -67 220 0 220 0 0 358 c0 326 -2 366 -20 437 -45
177 -160 288 -355 341 -81 22 -334 28 -437 10z m342 -731 c0 -72 -56 -140
-120 -145 -59 -5 -83 1 -111 29 -34 35 -37 68 -8 105 26 33 65 44 162 45 l77
1 0 -35z"/>
<path d="M18055 3323 c-309 -66 -504 -316 -482 -618 18 -242 172 -429 422
-512 73 -24 94 -27 235 -27 172 -1 233 11 345 66 135 65 243 182 293 317 33
89 42 248 18 341 -36 139 -102 237 -214 320 -120 89 -265 131 -444 129 -57 0
-134 -7 -173 -16z m265 -375 c69 -35 95 -90 95 -198 0 -75 -3 -91 -27 -132
-63 -106 -203 -118 -285 -25 -29 33 -53 104 -53 157 0 53 24 124 53 157 58 66
138 81 217 41z"/>
<path d="M19380 3325 c-176 -37 -298 -116 -358 -230 -24 -44 -27 -61 -27 -150
0 -93 2 -104 31 -155 63 -111 178 -166 414 -195 154 -20 200 -34 200 -64 0
-36 -36 -46 -155 -44 -120 1 -226 24 -323 68 -31 14 -59 22 -63 18 -6 -7 -92
-207 -120 -281 -8 -21 -4 -25 46 -47 137 -61 320 -90 515 -82 153 6 223 22
327 72 138 68 205 163 211 300 5 108 -20 175 -88 239 -79 74 -164 103 -380
131 -69 9 -136 22 -150 28 -35 17 -36 42 -4 64 23 15 47 18 129 17 110 -1 199
-20 277 -60 l49 -25 15 36 c81 194 113 278 109 285 -6 10 -142 55 -215 70 -85
19 -363 22 -440 5z"/>
<path d="M12800 2750 l0 -570 235 0 235 0 0 570 0 570 -235 0 -235 0 0 -570z"/>
<path d="M14150 2750 l0 -570 240 0 240 0 0 570 0 570 -240 0 -240 0 0 -570z"/>
</g>
</svg>
